<svg xmlns="http://www.w3.org/2000/svg" xmlns:xlink="http://www.w3.org/1999/xlink" viewBox="0 0 2030.84 364.5"><defs><linearGradient id="linear-gradient" x1="329.25" y1="36.99" x2="329.25" y2="364.5" gradientUnits="userSpaceOnUse"><stop offset="0" stop-color="#03caff"/><stop offset="0.45" stop-color="#03c8fe"/><stop offset="0.69" stop-color="#03c0fb"/><stop offset="0.87" stop-color="#02b3f6"/><stop offset="1" stop-color="#02a4f0"/></linearGradient><clipPath id="clip-path"><path d="M361.94,29.68,379,45.36a56,56,0,0,0-5.14,4.2Z" style="fill:none"/></clipPath><clipPath id="clip-path-2"><path d="M400.21,12.51l6.94,22.1c-1.1.12-2.2.26-3.3.44s-2.19.39-3.28.63Z" style="fill:none"/></clipPath><clipPath id="clip-path-3"><path d="M430.68,37l11.26-20.26-5.06,22.63A55.79,55.79,0,0,0,430.68,37Z" style="fill:none"/></clipPath><clipPath id="clip-path-4"><path d="M468.58,110l20.26,11.26-22.62-5.06A57.78,57.78,0,0,0,468.58,110Z" style="fill:none"/></clipPath><clipPath id="clip-path-5"><path d="M460.23,58.33A56.18,56.18,0,0,0,456,53.2L475.9,41.27Z" style="fill:none"/></clipPath><clipPath id="clip-path-6"><path d="M471,86.48c-.12-1.1-.26-2.2-.44-3.3s-.39-2.19-.63-3.28l23.17-.37Z" style="fill:none"/></clipPath><radialGradient id="radial-gradient" cx="413.13" cy="92.46" r="48.37" gradientUnits="userSpaceOnUse"><stop offset="0" stop-color="#ffd600"/><stop offset="0.31" stop-color="#ffd000"/><stop offset="0.71" stop-color="#ffc000"/><stop offset="1" stop-color="#ffb000"/></radialGradient></defs><title>Asset 4</title><g id="Layer_2" data-name="Layer 2"><g id="Layer_1-2" data-name="Layer 1"><path d="M859.76,86.34Q854,83.49,844.6,83.49q-10.58,0-16.12,3.81a11.66,11.66,0,0,0-5.54,10q0,9,14,13.17l27.39,7.8q15.42,4.34,23,13.69t7.54,22.53a35.82,35.82,0,0,1-6.24,21.06q-6.24,8.93-17.94,13.77t-27.47,4.86a81.56,81.56,0,0,1-31.88-6q-14.22-6-20.8-16.38a4.61,4.61,0,0,1-.69-2.25,4.22,4.22,0,0,1,1.73-3l13.34-9.18a6.18,6.18,0,0,1,3.12-1,3.14,3.14,0,0,1,2.6,1.38q6.4,8.32,13,11.79t17.5,3.46q11.61,0,18.2-3.64a11.73,11.73,0,0,0,6.58-10.91,10.86,10.86,0,0,0-3.29-8q-3.29-3.28-11.09-5.72l-26.17-7.45q-14.91-4.15-23.05-13.95a34.92,34.92,0,0,1-2-42.2q6.15-8.83,17.42-14t26-5.11a70.18,70.18,0,0,1,26.69,4.94Q882.56,72,889,80.37a4.21,4.21,0,0,1,1,2.42,2.46,2.46,0,0,1-1,1.91L874.41,95.44a3.34,3.34,0,0,1-1.56.7c-.58,0-1.51-.64-2.78-1.91A33.91,33.91,0,0,0,859.76,86.34Z"/><path d="M1002.82,190.07a2.22,2.22,0,0,1-.78,1.73,3.15,3.15,0,0,1-2.16.69H977.17q-2.94,0-4.68-3.64l-17.85-35.7q-.69-1.56-1.56-1.56a2.36,2.36,0,0,0-1.38.87l-12.31,12.13c-1,.81-1.56,2.25-1.56,4.33v19.41a4.15,4.15,0,0,1-1,3.21,5,5,0,0,1-3.46,1H915a4.08,4.08,0,0,1-3-.86,3.8,3.8,0,0,1-.87-2.78V67.2q0-3.3,2.78-3.3h21.31c1.74,0,2.6,1,2.6,3.12v71.06c0,.92.23,1.38.7,1.38a1.88,1.88,0,0,0,1.38-.86l32.58-35.36q2.61-2.59,4.68-2.6h18.55c2,0,2.94.64,2.94,1.91a3.45,3.45,0,0,1-1.21,2.42l-24.26,24.61a3.56,3.56,0,0,0-1,2.26,5.88,5.88,0,0,0,.69,2.6l29.64,54.07A2.82,2.82,0,0,1,1002.82,190.07Z"/><path d="M1016.16,220.48a2.63,2.63,0,0,1-2.25-2.69V204.45c0-1.85,1.67-2.77,5-2.77h11.78a12.18,12.18,0,0,0,9-3.9q3.81-3.9,3.81-8.23a7,7,0,0,0-.52-2.78l-33.27-82a5.74,5.74,0,0,1-.35-1.38,2.57,2.57,0,0,1,.87-2,3.24,3.24,0,0,1,2.25-.78h21.84a4.05,4.05,0,0,1,2.34.78,3.62,3.62,0,0,1,1.47,2.17l19.24,51.64c.35,1.16.81,1.73,1.39,1.73s1-.63,1.56-1.9l19.06-51.64a4,4,0,0,1,3.81-2.78h14.91a2.71,2.71,0,0,1,2,.78,2.5,2.5,0,0,1,.78,1.82,5.89,5.89,0,0,1-.35,1.39L1065,192.49q-4.85,12-10.22,18a27.75,27.75,0,0,1-12.39,8.31q-7,2.25-18.28,2.26A35.51,35.51,0,0,1,1016.16,220.48Z"/><path d="M1241.54,101.42a2.5,2.5,0,0,1,.78,1.82,6.24,6.24,0,0,1-.34,1.39l-28.25,85.09a4.55,4.55,0,0,1-1.3,2.17,3.81,3.81,0,0,1-2.34.6h-14.21a4.82,4.82,0,0,1-3-.78,4.73,4.73,0,0,1-1.56-2.51l-14.9-47.66c-.35-1-.81-1.56-1.39-1.56-.35,0-.69.52-1,1.56l-15.25,48.18a3.68,3.68,0,0,1-1.13,2.17,4.16,4.16,0,0,1-2.51.6h-14.73a4.44,4.44,0,0,1-2.86-.78,4.9,4.9,0,0,1-1.47-2.51l-27.9-84.4a2.85,2.85,0,0,1-.18-1.21,3,3,0,0,1,.78-2.08,2.76,2.76,0,0,1,2.17-.87h20.27a4.05,4.05,0,0,1,2.34.78,3.68,3.68,0,0,1,1.48,2.17l15.42,49c.35,1,.75,1.56,1.21,1.56s.87-.57,1.22-1.73l14.9-49a3.59,3.59,0,0,1,1.47-2,4.05,4.05,0,0,1,2.34-.78h14.56a3.68,3.68,0,0,1,2.43.87,3.28,3.28,0,0,1,1.21,2.08l15.08,49c.34,1,.75,1.56,1.21,1.56s1-.57,1.39-1.73l14.9-49a4.12,4.12,0,0,1,4-2.78h13.17A2.71,2.71,0,0,1,1241.54,101.42Z"/><path d="M1278.89,194.23q-13,0-20.63-7t-7.62-18.29q0-14.55,13.34-23.39t36.74-9.36l6.24-.52a2.86,2.86,0,0,0,1.82-.61,2.16,2.16,0,0,0,.78-1.82v-3.64q0-6.75-3.81-10.39t-10.92-3.64q-12.13,0-18,10.39a2.37,2.37,0,0,1-2.26,1.74,6.25,6.25,0,0,1-1.56-.18l-17.33-4a1.79,1.79,0,0,1-1.56-1.91,6.62,6.62,0,0,1,.7-2.6q4.15-10,14.81-15.08t26.43-5q20.63,0,29.81,7.54t9.19,21.4v60.83a4.82,4.82,0,0,1-.7,2.95,3.18,3.18,0,0,1-2.6.86h-17.85a2.76,2.76,0,0,1-2.51-1.21,9.29,9.29,0,0,1-1.13-3.64l-.17-3.81c-.12-1-.58-1.56-1.39-1.56a6.13,6.13,0,0,0-2.59,1.38A38.74,38.74,0,0,1,1278.89,194.23ZM1309,149.34a2.5,2.5,0,0,0-2.08-.69l-4.85.34a40.7,40.7,0,0,0-17.76,4.77q-7.72,4.25-7.72,11.7a10.17,10.17,0,0,0,3.64,8.23q3.64,3,10,3a20.26,20.26,0,0,0,13.52-4.68q5.72-4.5,5.72-9.18V151.59A3.77,3.77,0,0,0,1309,149.34Z"/><path d="M1353.58,220.48a2.63,2.63,0,0,1-2.25-2.69V204.45q0-2.77,5-2.77h11.79a12.21,12.21,0,0,0,9-3.9q3.81-3.9,3.81-8.23a7,7,0,0,0-.52-2.78l-33.27-82a5.28,5.28,0,0,1-.35-1.38,2.57,2.57,0,0,1,.87-2,3.21,3.21,0,0,1,2.25-.78h21.83a4.05,4.05,0,0,1,2.34.78,3.68,3.68,0,0,1,1.48,2.17l19.23,51.64c.35,1.16.81,1.73,1.39,1.73s1-.63,1.56-1.9l19.06-51.64a4,4,0,0,1,3.82-2.78h14.9a2.69,2.69,0,0,1,2,.78,2.5,2.5,0,0,1,.78,1.82,5.69,5.69,0,0,1-.34,1.39l-35.53,87.86q-4.86,12-10.22,18a27.83,27.83,0,0,1-12.4,8.31q-7,2.25-18.28,2.26A35.47,35.47,0,0,1,1353.58,220.48Z"/><path d="M1490.31,191.63a3.05,3.05,0,0,1-.87-2.26V67.54a3.6,3.6,0,0,1,1-2.68,3.37,3.37,0,0,1,2.51-1h47q25.49,0,38.91,8.58t13.43,25.22q0,9.7-5.2,16.37t-17.5,11.7a.72.72,0,0,0,0,1.39q13.52,4.5,19.67,11.7t6.15,18.8q0,17.67-13.26,26.25t-39.94,8.58h-49.39A3.28,3.28,0,0,1,1490.31,191.63Zm52.16-74.7q8.49,0,14.13-4.07t5.63-11.7q0-8-5.89-12.39t-15.43-4.42h-17.85a3.74,3.74,0,0,0-2.51.7,2.87,2.87,0,0,0-.78,2.25v26.51a4.17,4.17,0,0,0,.52,2.43,2.26,2.26,0,0,0,1.91.69ZM1541.26,172q11.09,0,16.81-4.59t5.72-12.56q0-8-5.89-12.4t-15.43-4.41h-19.41a4.07,4.07,0,0,0-2.59.6,3,3,0,0,0-.7,2.34v27.73a4.61,4.61,0,0,0,.52,2.51,2.13,2.13,0,0,0,1.91.78Z"/><path d="M1612.14,189v-85.1q0-3.29,2.77-3.29h20.28c1.85,0,2.77,1,2.77,3v10.22a1.4,1.4,0,0,0,.35,1,1,1,0,0,0,.69.35c.35,0,.81-.29,1.39-.87a42.51,42.51,0,0,1,12.3-11.17q7.11-4.25,13.52-4.25,6.24,0,6.24,3V122a2.56,2.56,0,0,1-.69,1.9,1.81,1.81,0,0,1-1.91.35,50.2,50.2,0,0,0-12.13-1.38A19.77,19.77,0,0,0,1649,125a21.17,21.17,0,0,0-7.28,5.72,11.42,11.42,0,0,0-2.86,7.19v50.61c0,2.66-1.5,4-4.51,4h-18.54Q1612.13,192.49,1612.14,189Z"/><path d="M1713,85.22q0,4.34-4.68,4.33h-18.71a3.87,3.87,0,0,1-2.95-1,4.42,4.42,0,0,1-.87-3V67.37q0-3.47,3-3.47h21.49a2.55,2.55,0,0,1,2,.87,3.51,3.51,0,0,1,.78,2.43Zm-.35,103.11a4.19,4.19,0,0,1-1,3.21,5.39,5.39,0,0,1-3.64,1h-18.2a4.08,4.08,0,0,1-3-.86,3.8,3.8,0,0,1-.86-2.78V103.93q0-3.29,2.94-3.29h21.15c1.73,0,2.59,1,2.59,3Z"/><path d="M1792,189v-4.86q0-1.38-.87-1.38a3.32,3.32,0,0,0-1.56.69,43.29,43.29,0,0,1-11,7.8,32.14,32.14,0,0,1-14.3,2.95q-16.29,0-26.26-12.14t-10-34.83a59.15,59.15,0,0,1,5.11-25.21A41.73,41.73,0,0,1,1747,105,32.52,32.52,0,0,1,1766,98.91a31.79,31.79,0,0,1,12.22,2.25,35.24,35.24,0,0,1,10.48,6.93,3.83,3.83,0,0,0,1.74.87c.8,0,1.21-.75,1.21-2.25V67c0-2.08.92-3.12,2.77-3.12h21.15a2.56,2.56,0,0,1,2,.87,3.51,3.51,0,0,1,.78,2.43V188.85a3.8,3.8,0,0,1-.87,2.78,4.38,4.38,0,0,1-3.12.86h-18.71Q1792,192.49,1792,189Zm-8.23-70.88a18.28,18.28,0,0,0-8.76-2.08,17,17,0,0,0-14.55,7.53q-5.38,7.54-5.38,23.31,0,16,5.2,23.31a16.65,16.65,0,0,0,14.39,7.37,17.11,17.11,0,0,0,12-4.59,14.06,14.06,0,0,0,5-10.66V124.56A30.56,30.56,0,0,0,1783.8,118.15Z"/><path d="M1933.79,100.47v11.78q0,4.86-4,4a25.34,25.34,0,0,0-5-.52,16.09,16.09,0,0,0-3.12.35c-3,.46-4.16,1.79-3.47,4a25.66,25.66,0,0,1,1.56,7.8,23.48,23.48,0,0,1-4.77,14.38q-4.76,6.42-14.21,10.23T1878,156.27q-9.7,0-14.29,1.56t-4.6,4.16a3.33,3.33,0,0,0,2.52,3.21,31.46,31.46,0,0,0,8.4,1.3l24.78,1.38q17.16,1.05,25.57,7.63a21.12,21.12,0,0,1,8.4,17.5q0,13.52-12.82,21.66t-36.4,8.15q-50.43,0-50.43-22.36a12.25,12.25,0,0,1,4.34-9.44q4.32-3.9,12.3-6.85c.69-.23,1-.52,1-.86s-.35-.7-1-1q-10.05-4.86-10-12.83,0-4.68,4.59-8.75a40.15,40.15,0,0,1,12.22-7c1.38-.69,1.5-1.38.34-2.08q-16.8-7.8-16.8-23.57,0-13.16,11.35-21t32.49-7.79q17.85,0,27.73,7.79a4,4,0,0,0,2.25.87,3.12,3.12,0,0,0,2.43-1.21,30.38,30.38,0,0,1,8.66-7q5.37-3,9.36-3Q1933.79,96.66,1933.79,100.47ZM1865,187.29a15,15,0,0,0-9.62,2.52q-4.24,2.85-4.25,7.19,0,6.41,7.11,9.7t23,3.3q11.61,0,17.85-3.21t6.24-9.1a7.48,7.48,0,0,0-3.47-6.41q-3.47-2.43-10.22-2.77ZM1891.07,139a13.84,13.84,0,0,0,4.42-10.66q0-7.28-4.42-11.52t-13.26-4.25c-5.54,0-9.91,1.45-13.08,4.33a14.71,14.71,0,0,0-4.77,11.44,13.34,13.34,0,0,0,4.77,10.66c3.17,2.71,7.54,4.07,13.08,4.07Q1886.65,143.1,1891.07,139Z"/><path d="M1973.39,170.05a23,23,0,0,0,16.2,6,25,25,0,0,0,11.52-2.69,36.15,36.15,0,0,0,10.66-8.92,2,2,0,0,1,1.39-.7,5.39,5.39,0,0,1,1.73.52l12.48,5.2a1.79,1.79,0,0,1,1.21,1.74,2.77,2.77,0,0,1-.69,1.73q-8.33,11.79-17.85,16.55t-23.74,4.77a49.23,49.23,0,0,1-24.09-5.9A42.69,42.69,0,0,1,1945.4,172a47,47,0,0,1-6.07-24q0-14.55,6.24-25.73a44.16,44.16,0,0,1,16.9-17.25,48.94,48.94,0,0,1,46.7-.26,40.27,40.27,0,0,1,15.95,16.73q5.72,10.92,5.72,26a7.64,7.64,0,0,1-.44,3.12c-.29.58-1.12.93-2.51,1H1969c-1.39,0-2.08.93-2.08,2.78Q1966.89,164.08,1973.39,170.05Zm28.33-33a4.32,4.32,0,0,0,2.43-.44,2.66,2.66,0,0,0,.52-2,21.44,21.44,0,0,0-2.08-9,19,19,0,0,0-6.07-7.45,15.83,15.83,0,0,0-9.7-3,18.36,18.36,0,0,0-14.21,6.07q-5.55,6.06-5.38,15.59Z"/><path d="M848.31,263.55a32.18,32.18,0,0,0-14.18-2.84q-10.61,0-16.5,4.41a14.33,14.33,0,0,0-5.9,12.16q0,10.31,14.63,15.23l22.4,7q25.37,7.91,25.37,29.85,0,14.79-11,23.29t-30.08,8.51q-14.19,0-25.08-4.93a38.6,38.6,0,0,1-16.87-14,5,5,0,0,1-.59-1.49,2.84,2.84,0,0,1,1.49-2.24l7.31-5.08a4.52,4.52,0,0,1,2.39-.89,2.17,2.17,0,0,1,1.79,1q6.12,7.92,12.17,11.2T832,348q11.64,0,18.21-4t6.57-12.54a12.86,12.86,0,0,0-3.36-9q-3.36-3.66-12.17-6.79l-22.54-7.31q-12.09-4-18.14-11.8a27.49,27.49,0,0,1-6-17.32,28.92,28.92,0,0,1,4.92-16.64,32,32,0,0,1,13.81-11.2,50.13,50.13,0,0,1,20.53-3.95,51.93,51.93,0,0,1,20.82,4,41.12,41.12,0,0,1,15.3,11,2.26,2.26,0,0,1,.75,1.64,1.84,1.84,0,0,1-.75,1.49l-8.51,6.57a2,2,0,0,1-1.19.45c-.3,0-.9-.45-1.79-1.35A32.22,32.22,0,0,0,848.31,263.55Z"/><path d="M912.8,291.91c-.9,0-1.34.5-1.34,1.5v43.74q0,6.27,2.31,8.65c1.54,1.6,4,2.39,7.39,2.39h9.55A1.58,1.58,0,0,1,932.5,350v6.42a2.41,2.41,0,0,1-2.24,2.54,109.22,109.22,0,0,1-15.22.75q-9.85,0-14.63-4.56T895.63,341V293.71c0-1.2-.5-1.8-1.49-1.8h-11.2c-1.29,0-1.94-.59-1.94-1.79v-7.91c0-1.09.6-1.64,1.79-1.64h12c.79,0,1.19-.45,1.19-1.35l1.79-23.43c.2-1.4.8-2.09,1.79-2.09h10.3c1.3,0,1.94.8,1.94,2.39v23.13a1.19,1.19,0,0,0,1.35,1.35H931c1.2,0,1.79.55,1.79,1.64v7.91c0,1.2-.7,1.79-2.09,1.79Z"/><path d="M967.58,361.18q-11.49,0-18.13-5.9t-6.65-15.75q0-12.09,10.53-19.25t29.93-8.06l9.7-.75c1.59-.2,2.39-1,2.39-2.24V305.5q0-7.32-4.48-11.57c-3-2.84-7.07-4.26-12.24-4.26q-12.24,0-19.56,11.05a2.17,2.17,0,0,1-1,1.12,2.43,2.43,0,0,1-1.56-.07l-10.15-3a1.17,1.17,0,0,1-.9-1.19,4.55,4.55,0,0,1,.45-1.65,28.66,28.66,0,0,1,12.76-12.46q8.58-4.39,20.68-4.4,15.68,0,23.43,6.71t7.77,18.66v52.7a2.88,2.88,0,0,1-.53,2,2.39,2.39,0,0,1-1.71.52h-10c-1.39,0-2.19-1-2.38-3l-.3-5.67c-.2-.8-.5-1.19-.9-1.19a3.74,3.74,0,0,0-1.64.89A35.69,35.69,0,0,1,967.58,361.18Zm25.68-40.9-8.06.59q-12.39.75-19.63,5t-7.24,11.71a11.11,11.11,0,0,0,4.18,9.18q4.17,3.36,11.19,3.36a24.54,24.54,0,0,0,15.23-5.52q6.42-5.22,6.42-10.45V322.52C995.35,320.93,994.65,320.18,993.26,320.28Z"/><path d="M1055.06,291.91c-.9,0-1.34.5-1.34,1.5v43.74q0,6.27,2.31,8.65c1.54,1.6,4,2.39,7.39,2.39H1073a1.59,1.59,0,0,1,1.8,1.79v6.42a2.42,2.42,0,0,1-2.24,2.54,109.48,109.48,0,0,1-15.23.75q-9.85,0-14.63-4.56t-4.78-14.1V293.71c0-1.2-.5-1.8-1.49-1.8h-11.2c-1.29,0-1.94-.59-1.94-1.79v-7.91c0-1.09.6-1.64,1.79-1.64h12c.79,0,1.19-.45,1.19-1.35l1.79-23.43c.2-1.4.8-2.09,1.79-2.09h10.3c1.3,0,2,.8,2,2.39v23.13a1.19,1.19,0,0,0,1.34,1.35h17.91c1.2,0,1.79.55,1.79,1.64v7.91c0,1.2-.69,1.79-2.09,1.79Z"/><path d="M1140.45,337.44V283.11c0-1.69.94-2.54,2.83-2.54H1154a2.12,2.12,0,0,1,2.39,2.39l-.3,74.64c0,1.39-.6,2.09-1.79,2.09h-11.64c-1.2,0-1.8-.65-1.8-1.94v-8.36c0-1.2-.49-1.35-1.49-.45q-7.32,6.72-13.58,9.48a32.27,32.27,0,0,1-13.14,2.76q-10.31,0-16.87-6.34t-6.57-16.8V283.26a2.38,2.38,0,0,1,2.69-2.69h10.9c1.49,0,2.24.8,2.24,2.39v51.8q0,6.57,3.73,10.52a13.09,13.09,0,0,0,10,4Q1129.11,349.24,1140.45,337.44Z"/><path d="M1216.88,292.14a25.49,25.49,0,0,0-11.8-2.61q-7.45,0-12.24,3.06a9.41,9.41,0,0,0-4.77,8.28,7.41,7.41,0,0,0,2.38,5.37q2.4,2.4,8.66,4.18l18.37,5.23q10.44,2.69,15.45,8.28a19.23,19.23,0,0,1,5,13.22,19.9,19.9,0,0,1-4.26,12.61,27.13,27.13,0,0,1-11.87,8.43,50.86,50.86,0,0,1-38.21-1.56q-9.1-4.56-13-11.87a2.69,2.69,0,0,1-.45-1.34,1.47,1.47,0,0,1,.75-1.35l7.31-3.88a3.54,3.54,0,0,1,1.5-.45,1.42,1.42,0,0,1,1.19.6q7.92,11.94,23.44,11.94,8.21,0,13.58-3.06t5.38-8.28a8.07,8.07,0,0,0-3.06-6.35q-3.06-2.61-10.08-4.4l-15.23-3.88q-11-2.69-16.12-7.91a18.11,18.11,0,0,1-5.07-13.14,20.91,20.91,0,0,1,4-12.62,26,26,0,0,1,11-8.5,45.3,45.3,0,0,1,34.71.82,28.73,28.73,0,0,1,12.09,10.15,3,3,0,0,1,.6,1.49,1.27,1.27,0,0,1-.75,1l-7.76,4a2.09,2.09,0,0,1-.9.15,2.27,2.27,0,0,1-1.64-.75A22.83,22.83,0,0,0,1216.88,292.14Z"/><path d="M658.49,364.5H0c0-3,2.85-9.45,8.16-19.32l.18-.34,8.42-13.28.32-.51C63.53,255.65,197.83,87.16,329.26,37c6.82,2.61,13.68,5.54,20.51,8.75s13.47,6.73,20.47,10.5h0A57.62,57.62,0,0,0,357,92.05a56.13,56.13,0,0,0,104.24,29.36c80.64,69.88,149.15,159.7,179.89,209.44,0,0,.13.2.32.5,1.61,2.55,8.66,13.78,8.66,13.78a1.09,1.09,0,0,0,.08.15,132.5,132.5,0,0,1,6.67,13.34A19.36,19.36,0,0,1,658.49,364.5Z" style="fill:url(#linear-gradient)"/><polygon points="215.24 281.83 195.81 310.77 200.29 310.49 215.44 287.93 215.76 287.56 215.55 281.45 215.24 281.83" style="fill:#fff"/><polygon points="320.43 303.04 324.9 302.76 223.79 176.56 223.5 167.53 211.79 168.26 212.05 176 211.59 176.7 118.87 315.54 123.34 315.26 211.79 182.81 212.25 182.12 213.23 211.52 212.92 211.9 144.58 313.95 149.08 313.67 213.12 218 213.43 217.63 214.57 251.8 214.39 246.49 214.08 246.86 170.19 312.36 174.69 312.08 214.28 252.97 214.59 252.59 216.49 309.49 228.19 308.76 225.14 216.9 225.31 217.48 294.88 304.62 299.34 304.35 225.11 211.38 224.93 210.79 225.1 215.94 224 182.64 320.43 303.04" style="fill:#fff"/><polygon points="226.1 245.76 226.3 251.87 226.48 252.44 269.29 306.21 273.75 305.94 226.27 246.34 226.1 245.76" style="fill:#fff"/><polygon points="227.26 280.73 227.46 286.83 227.64 287.41 243.69 307.8 248.16 307.52 227.44 281.31 227.26 280.73" style="fill:#fff"/><polygon points="445.02 176.7 444.57 176 444.82 168.26 433.12 167.53 432.82 176.56 331.72 302.76 336.19 303.04 432.62 182.64 431.68 210.79 431.5 211.38 357.28 304.35 361.74 304.62 431.3 217.48 431.48 216.9 430.41 248.99 430.52 245.76 430.34 246.34 382.87 305.94 387.33 306.21 430.14 252.44 430.32 251.87 428.43 308.76 440.13 309.49 440.86 287.56 441.17 287.93 456.32 310.49 460.81 310.77 441.37 281.83 441.06 281.45 442.02 252.59 442.33 252.97 481.93 312.08 486.42 312.36 442.54 246.86 442.22 246.49 444.36 182.12 444.82 182.81 533.27 315.26 537.74 315.54 445.02 176.7" style="fill:#fff"/><polygon points="443.39 211.52 443.18 217.63 443.5 218 507.54 313.67 512.03 313.95 443.7 211.9 443.39 211.52" style="fill:#fff"/><polygon points="429.15 286.83 429.36 280.73 429.18 281.31 408.46 307.52 412.93 307.8 428.98 287.41 429.15 286.83" style="fill:#fff"/><path d="M650.18,345.28c-.2,0-.42-.09-.43-.09-.62-.13-.91-.27-1.49-.39-3-.7-6-1.38-9-2.05V364.5h-15V339.59c-9-2.23-21-4.34-32-6.35V364.5h-15V330.73c-11-1.8-22-3.43-33-5V364.5h-14V323.78c-27-3.5-54-6.27-82-8.3v49h-26V313.73c-31-1.67-61.68-2.54-92.5-2.57s-60.5.9-92.5,2.57V364.5h-27v-49c-25,2-54,4.8-82,8.3V364.5h-13V325.75c-12,1.55-22,3.18-34,5V364.5h-14V333.24c-12,2-21,4.12-33,6.35V364.5h-14V342.75c-4,.67-6.1,1.19-9.08,1.89-.67.15-2.39.43-2.82.5.06-.1,0-.21.08-.32s6.82-10.8,8.39-13.27c2.54-.5,67.79-13.18,103.39-18l1.46-.2c1.07-.15,2.14-.27,3.21-.4.51-.05,1-.12,1.51-.18,6.83-.86,13.69-1.69,20.61-2.45l1.51-.16c1-.13,2.09-.25,3.15-.36l1.55-.16c6.66-.74,13.4-1.43,20.16-2l1.46-.13c1-.13,2.1-.23,3.15-.32l1.48-.12q9.93-.92,20-1.71l1.5-.12,3-.21,1.49-.11c3.6-.27,7.22-.5,10.85-.75l.8-.05c3.63-.27,7.24-.47,10.9-.68l.84-.05c3.62-.24,7.23-.44,10.88-.61h.19c1.43-.09,2.89-.18,4.31-.2h.2c7-.41,14.09-.7,21.19-.94h.19c1.43-.07,2.9-.11,4.37-.14h.19c7.14-.26,14.31-.47,21.52-.58.07,0,.14.37.22.37,1.42-.08,2.87.25,4.36.25h.23c7.22,0,14.44-1,21.74-1h.19c1.48,0,3-.06,4.46,0h.25c1.33,0,2.71,0,4.07,0l2.25,0,2.24,0h1.65c.82,0,1.63,0,2.44,0s1.49,0,2.24,0,1.63,0,2.45.07c6.54,0,13,0,19.5.16l2.43.05,2.19,0q1.21,0,2.4.09c6.46.1,12.9.28,19.3.5l2.44.09,2.13.05c.81,0,1.63.05,2.43.09,6.36.22,12.69.47,19,.82l2.39.13,2.12.07,2.39.14c3.09.15,6.16.31,9.22.5l1.85.12c3.3.19,6.57.37,9.85.6l1.89.13c3.44.23,6.89.45,10.31.7l1.33.1,3.19.23c.45,0,.89.07,1.34.09q10.11.79,20.11,1.71l1.38.12c1.06.08,2.13.17,3.2.28l1.42.16c6.8.61,13.59,1.29,20.29,2l1.34.15c1.1.1,2.21.22,3.3.35l1.4.17c6.95.75,13.86,1.6,20.72,2.45l1.4.17,3.28.43,1.45.19c35.76,4.7,71.35,10.83,103.78,17.91l8.65,13.78Z" style="fill:#fff"/><path d="M420.85,140.21a48.36,48.36,0,1,1,40-55.47A48.37,48.37,0,0,1,420.85,140.21Z" style="fill:#fff"/><g style="clip-path:url(#clip-path)"><rect x="361.24" y="29.5" width="19" height="18" style="fill:#ffb000"/><circle cx="370.46" cy="39.63" r="9.26" style="fill:#ffb000"/><circle cx="370.46" cy="39.63" r="9.02" style="fill:#ffb200"/><circle cx="370.46" cy="39.63" r="8.77" style="fill:#ffb300"/><circle cx="370.46" cy="39.63" r="8.53" style="fill:#ffb500"/><circle cx="370.46" cy="39.63" r="8.29" style="fill:#ffb600"/><circle cx="370.46" cy="39.63" r="8.04" style="fill:#ffb800"/><circle cx="370.46" cy="39.63" r="7.8" style="fill:#ffb900"/><circle cx="370.46" cy="39.63" r="7.56" style="fill:#fb0"/><circle cx="370.46" cy="39.63" r="7.31" style="fill:#ffbc00"/><circle cx="370.46" cy="39.63" r="7.07" style="fill:#ffbe00"/><circle cx="370.46" cy="39.63" r="6.82" style="fill:#ffbf00"/><circle cx="370.46" cy="39.63" r="6.58" style="fill:#ffc000"/><circle cx="370.46" cy="39.63" r="6.34" style="fill:#ffc200"/><circle cx="370.46" cy="39.63" r="6.09" style="fill:#ffc300"/><circle cx="370.46" cy="39.63" r="5.85" style="fill:#ffc400"/><circle cx="370.46" cy="39.63" r="5.61" style="fill:#ffc600"/><circle cx="370.46" cy="39.63" r="5.36" style="fill:#ffc700"/><circle cx="370.46" cy="39.63" r="5.12" style="fill:#ffc800"/><circle cx="370.46" cy="39.63" r="4.87" style="fill:#ffc900"/><circle cx="370.46" cy="39.63" r="4.63" style="fill:#ffca00"/><circle cx="370.46" cy="39.63" r="4.39" style="fill:#ffcb00"/><circle cx="370.46" cy="39.63" r="4.14" style="fill:#fc0"/><circle cx="370.46" cy="39.63" r="3.9" style="fill:#ffcd00"/><circle cx="370.46" cy="39.63" r="3.66" style="fill:#ffce00"/><circle cx="370.46" cy="39.63" r="3.41" style="fill:#ffcf00"/><circle cx="370.46" cy="39.63" r="3.17" style="fill:#ffd000"/><circle cx="370.46" cy="39.63" r="2.92" style="fill:#ffd100"/><circle cx="370.46" cy="39.63" r="2.68" style="fill:#ffd100"/><circle cx="370.46" cy="39.63" r="2.44" style="fill:#ffd200"/><circle cx="370.46" cy="39.63" r="2.19" style="fill:#ffd300"/><circle cx="370.46" cy="39.63" r="1.95" style="fill:#ffd300"/><circle cx="370.46" cy="39.63" r="1.71" style="fill:#ffd400"/><circle cx="370.46" cy="39.63" r="1.46" style="fill:#ffd400"/><circle cx="370.46" cy="39.63" r="1.22" style="fill:#ffd500"/><circle cx="370.46" cy="39.63" r="0.97" style="fill:#ffd500"/><circle cx="370.46" cy="39.63" r="0.73" style="fill:#ffd600"/><circle cx="370.46" cy="39.63" r="0.49" style="fill:#ffd600"/><circle cx="370.46" cy="39.63" r="0.24" style="fill:#ffd600"/></g><path d="M381.86,45.53l-1.78,1.31a53,53,0,0,0-5,4l-1.64,1.53-19.56-32.6Z" style="fill:#ffc400"/><g style="clip-path:url(#clip-path-2)"><rect x="401.24" y="11.5" width="8" height="26" style="fill:#ffb000"/><circle cx="403.68" cy="24.1" r="8.56" style="fill:#ffb000"/><circle cx="403.68" cy="24.1" r="8.33" style="fill:#ffb200"/><circle cx="403.68" cy="24.1" r="8.11" style="fill:#ffb300"/><circle cx="403.68" cy="24.1" r="7.88" style="fill:#ffb500"/><circle cx="403.68" cy="24.1" r="7.66" style="fill:#ffb600"/><circle cx="403.68" cy="24.1" r="7.43" style="fill:#ffb800"/><circle cx="403.68" cy="24.1" r="7.21" style="fill:#ffb900"/><circle cx="403.68" cy="24.1" r="6.98" style="fill:#fb0"/><circle cx="403.68" cy="24.1" r="6.76" style="fill:#ffbc00"/><circle cx="403.68" cy="24.1" r="6.53" style="fill:#ffbe00"/><circle cx="403.68" cy="24.1" r="6.31" style="fill:#ffbf00"/><circle cx="403.68" cy="24.1" r="6.08" style="fill:#ffc000"/><circle cx="403.68" cy="24.1" r="5.86" style="fill:#ffc200"/><circle cx="403.68" cy="24.1" r="5.63" style="fill:#ffc300"/><circle cx="403.68" cy="24.1" r="5.41" style="fill:#ffc400"/><circle cx="403.68" cy="24.1" r="5.18" style="fill:#ffc600"/><circle cx="403.68" cy="24.1" r="4.96" style="fill:#ffc700"/><circle cx="403.68" cy="24.1" r="4.73" style="fill:#ffc800"/><circle cx="403.68" cy="24.1" r="4.5" style="fill:#ffc900"/><circle cx="403.68" cy="24.1" r="4.28" style="fill:#ffca00"/><circle cx="403.68" cy="24.1" r="4.05" style="fill:#ffcb00"/><circle cx="403.68" cy="24.1" r="3.83" style="fill:#fc0"/><circle cx="403.68" cy="24.1" r="3.6" style="fill:#ffcd00"/><circle cx="403.68" cy="24.1" r="3.38" style="fill:#ffce00"/><circle cx="403.68" cy="24.1" r="3.15" style="fill:#ffcf00"/><circle cx="403.68" cy="24.1" r="2.93" style="fill:#ffd000"/><circle cx="403.68" cy="24.1" r="2.7" style="fill:#ffd100"/><circle cx="403.68" cy="24.1" r="2.48" style="fill:#ffd100"/><circle cx="403.68" cy="24.1" r="2.25" style="fill:#ffd200"/><circle cx="403.68" cy="24.1" r="2.03" style="fill:#ffd300"/><circle cx="403.68" cy="24.1" r="1.8" style="fill:#ffd300"/><circle cx="403.68" cy="24.1" r="1.58" style="fill:#ffd400"/><circle cx="403.68" cy="24.1" r="1.35" style="fill:#ffd400"/><circle cx="403.68" cy="24.1" r="1.13" style="fill:#ffd500"/><circle cx="403.68" cy="24.1" r="0.9" style="fill:#ffd500"/><circle cx="403.68" cy="24.1" r="0.68" style="fill:#ffd600"/><circle cx="403.68" cy="24.1" r="0.45" style="fill:#ffd600"/><circle cx="403.68" cy="24.1" r="0.23" style="fill:#ffd600"/></g><path d="M409.55,36.2l-2.19.22c-1.09.11-2.15.26-3.21.44s-2.14.36-3.2.58l-2.15.48L398.18,0Z" style="fill:#ffc400"/><g style="clip-path:url(#clip-path-3)"><rect x="430.24" y="15.5" width="11" height="26" style="fill:#ffb000"/><circle cx="436.31" cy="28.05" r="8.93" style="fill:#ffb000"/><circle cx="436.31" cy="28.05" r="8.7" style="fill:#ffb200"/><circle cx="436.31" cy="28.05" r="8.46" style="fill:#ffb300"/><circle cx="436.31" cy="28.05" r="8.23" style="fill:#ffb500"/><circle cx="436.31" cy="28.05" r="7.99" style="fill:#ffb600"/><circle cx="436.31" cy="28.05" r="7.76" style="fill:#ffb800"/><circle cx="436.31" cy="28.05" r="7.52" style="fill:#ffb900"/><circle cx="436.31" cy="28.05" r="7.29" style="fill:#fb0"/><circle cx="436.31" cy="28.05" r="7.05" style="fill:#ffbc00"/><circle cx="436.31" cy="28.05" r="6.82" style="fill:#ffbe00"/><circle cx="436.31" cy="28.05" r="6.58" style="fill:#ffbf00"/><circle cx="436.31" cy="28.05" r="6.35" style="fill:#ffc000"/><circle cx="436.31" cy="28.05" r="6.11" style="fill:#ffc200"/><circle cx="436.31" cy="28.05" r="5.88" style="fill:#ffc300"/><circle cx="436.31" cy="28.05" r="5.64" style="fill:#ffc400"/><circle cx="436.31" cy="28.05" r="5.41" style="fill:#ffc600"/><circle cx="436.31" cy="28.05" r="5.17" style="fill:#ffc700"/><circle cx="436.31" cy="28.05" r="4.94" style="fill:#ffc800"/><circle cx="436.31" cy="28.05" r="4.7" style="fill:#ffc900"/><circle cx="436.31" cy="28.05" r="4.47" style="fill:#ffca00"/><circle cx="436.31" cy="28.05" r="4.23" style="fill:#ffcb00"/><circle cx="436.31" cy="28.05" r="4" style="fill:#fc0"/><circle cx="436.31" cy="28.05" r="3.76" style="fill:#ffcd00"/><circle cx="436.31" cy="28.05" r="3.53" style="fill:#ffce00"/><circle cx="436.31" cy="28.05" r="3.29" style="fill:#ffcf00"/><circle cx="436.31" cy="28.05" r="3.06" style="fill:#ffd000"/><circle cx="436.31" cy="28.05" r="2.82" style="fill:#ffd100"/><circle cx="436.31" cy="28.05" r="2.59" style="fill:#ffd100"/><circle cx="436.31" cy="28.05" r="2.35" style="fill:#ffd200"/><circle cx="436.31" cy="28.05" r="2.12" style="fill:#ffd300"/><circle cx="436.31" cy="28.05" r="1.88" style="fill:#ffd300"/><circle cx="436.31" cy="28.05" r="1.65" style="fill:#ffd400"/><circle cx="436.31" cy="28.05" r="1.41" style="fill:#ffd400"/><circle cx="436.31" cy="28.05" r="1.18" style="fill:#ffd500"/><circle cx="436.31" cy="28.05" r="0.94" style="fill:#ffd500"/><circle cx="436.31" cy="28.05" r="0.71" style="fill:#ffd600"/><circle cx="436.31" cy="28.05" r="0.47" style="fill:#ffd600"/><circle cx="436.31" cy="28.05" r="0.24" style="fill:#ffd600"/></g><path d="M446.48,4.88,438.17,42l-2-.91a55.31,55.31,0,0,0-6-2.3L428,38.06Z" style="fill:#ffc400"/><g style="clip-path:url(#clip-path-4)"><rect x="468.24" y="109.5" width="20" height="11" style="fill:#ffb000"/><circle cx="477.54" cy="115.64" r="8.93" style="fill:#ffb000"/><circle cx="477.54" cy="115.64" r="8.69" style="fill:#ffb200"/><circle cx="477.54" cy="115.64" r="8.46" style="fill:#ffb300"/><circle cx="477.54" cy="115.64" r="8.22" style="fill:#ffb500"/><circle cx="477.54" cy="115.64" r="7.99" style="fill:#ffb600"/><circle cx="477.54" cy="115.64" r="7.75" style="fill:#ffb800"/><circle cx="477.54" cy="115.64" r="7.52" style="fill:#ffb900"/><circle cx="477.54" cy="115.64" r="7.28" style="fill:#fb0"/><circle cx="477.54" cy="115.64" r="7.05" style="fill:#ffbc00"/><circle cx="477.54" cy="115.64" r="6.81" style="fill:#ffbe00"/><circle cx="477.54" cy="115.64" r="6.58" style="fill:#ffbf00"/><circle cx="477.54" cy="115.64" r="6.34" style="fill:#ffc000"/><circle cx="477.54" cy="115.64" r="6.11" style="fill:#ffc200"/><circle cx="477.54" cy="115.64" r="5.87" style="fill:#ffc300"/><circle cx="477.54" cy="115.64" r="5.64" style="fill:#ffc400"/><circle cx="477.54" cy="115.64" r="5.4" style="fill:#ffc600"/><circle cx="477.54" cy="115.64" r="5.17" style="fill:#ffc700"/><circle cx="477.54" cy="115.64" r="4.93" style="fill:#ffc800"/><circle cx="477.54" cy="115.64" r="4.7" style="fill:#ffc900"/><circle cx="477.54" cy="115.64" r="4.46" style="fill:#ffca00"/><circle cx="477.54" cy="115.64" r="4.23" style="fill:#ffcb00"/><circle cx="477.54" cy="115.64" r="3.99" style="fill:#fc0"/><circle cx="477.54" cy="115.64" r="3.76" style="fill:#ffcd00"/><circle cx="477.54" cy="115.64" r="3.52" style="fill:#ffce00"/><circle cx="477.54" cy="115.64" r="3.29" style="fill:#ffcf00"/><circle cx="477.54" cy="115.64" r="3.05" style="fill:#ffd000"/><circle cx="477.54" cy="115.64" r="2.82" style="fill:#ffd100"/><circle cx="477.54" cy="115.64" r="2.58" style="fill:#ffd100"/><circle cx="477.54" cy="115.64" r="2.35" style="fill:#ffd200"/><circle cx="477.54" cy="115.64" r="2.11" style="fill:#ffd300"/><circle cx="477.54" cy="115.64" r="1.88" style="fill:#ffd300"/><circle cx="477.54" cy="115.64" r="1.64" style="fill:#ffd400"/><circle cx="477.54" cy="115.64" r="1.41" style="fill:#ffd400"/><circle cx="477.54" cy="115.64" r="1.17" style="fill:#ffd500"/><circle cx="477.54" cy="115.64" r="0.94" style="fill:#ffd500"/><circle cx="477.54" cy="115.64" r="0.7" style="fill:#ffd600"/><circle cx="477.54" cy="115.64" r="0.47" style="fill:#ffd600"/><circle cx="477.54" cy="115.64" r="0.23" style="fill:#ffd600"/></g><path d="M500.71,125.81l-37.08-8.31.91-2a56.44,56.44,0,0,0,2.3-6l.69-2.11Z" style="fill:#ffc400"/><g style="clip-path:url(#clip-path-5)"><rect x="456.24" y="41.5" width="21" height="17" style="fill:#ffb000"/><circle cx="465.96" cy="49.79" r="9.26" style="fill:#ffb000"/><circle cx="465.96" cy="49.79" r="9.02" style="fill:#ffb200"/><circle cx="465.96" cy="49.79" r="8.77" style="fill:#ffb300"/><circle cx="465.96" cy="49.79" r="8.53" style="fill:#ffb500"/><circle cx="465.96" cy="49.79" r="8.29" style="fill:#ffb600"/><circle cx="465.96" cy="49.79" r="8.04" style="fill:#ffb800"/><circle cx="465.96" cy="49.79" r="7.8" style="fill:#ffb900"/><circle cx="465.96" cy="49.79" r="7.56" style="fill:#fb0"/><circle cx="465.96" cy="49.79" r="7.31" style="fill:#ffbc00"/><circle cx="465.96" cy="49.79" r="7.07" style="fill:#ffbe00"/><circle cx="465.96" cy="49.79" r="6.82" style="fill:#ffbf00"/><circle cx="465.96" cy="49.79" r="6.58" style="fill:#ffc000"/><circle cx="465.96" cy="49.79" r="6.34" style="fill:#ffc200"/><circle cx="465.96" cy="49.79" r="6.09" style="fill:#ffc300"/><circle cx="465.96" cy="49.79" r="5.85" style="fill:#ffc400"/><circle cx="465.96" cy="49.79" r="5.61" style="fill:#ffc600"/><circle cx="465.96" cy="49.79" r="5.36" style="fill:#ffc700"/><circle cx="465.96" cy="49.79" r="5.12" style="fill:#ffc800"/><circle cx="465.96" cy="49.79" r="4.87" style="fill:#ffc900"/><circle cx="465.96" cy="49.79" r="4.63" style="fill:#ffca00"/><circle cx="465.96" cy="49.79" r="4.39" style="fill:#ffcb00"/><circle cx="465.96" cy="49.79" r="4.14" style="fill:#fc0"/><circle cx="465.96" cy="49.79" r="3.9" style="fill:#ffcd00"/><circle cx="465.96" cy="49.79" r="3.66" style="fill:#ffce00"/><circle cx="465.96" cy="49.79" r="3.41" style="fill:#ffcf00"/><circle cx="465.96" cy="49.79" r="3.17" style="fill:#ffd000"/><circle cx="465.96" cy="49.79" r="2.92" style="fill:#ffd100"/><circle cx="465.96" cy="49.79" r="2.68" style="fill:#ffd100"/><circle cx="465.96" cy="49.79" r="2.44" style="fill:#ffd200"/><circle cx="465.96" cy="49.79" r="2.19" style="fill:#ffd300"/><circle cx="465.96" cy="49.79" r="1.95" style="fill:#ffd300"/><circle cx="465.96" cy="49.79" r="1.71" style="fill:#ffd400"/><circle cx="465.96" cy="49.79" r="1.46" style="fill:#ffd400"/><circle cx="465.96" cy="49.79" r="1.22" style="fill:#ffd500"/><circle cx="465.96" cy="49.79" r="0.97" style="fill:#ffd500"/><circle cx="465.96" cy="49.79" r="0.73" style="fill:#ffd600"/><circle cx="465.96" cy="49.79" r="0.49" style="fill:#ffd600"/><circle cx="465.96" cy="49.79" r="0.24" style="fill:#ffd600"/></g><path d="M485.78,33.22l-25.72,28-1.31-1.82a51.47,51.47,0,0,0-4-5l-1.53-1.67Z" style="fill:#ffc400"/><g style="clip-path:url(#clip-path-6)"><rect x="471.24" y="80.5" width="21" height="8" style="fill:#ffb000"/><circle cx="481.48" cy="83.01" r="8.56" style="fill:#ffb000"/><circle cx="481.48" cy="83.01" r="8.33" style="fill:#ffb200"/><circle cx="481.48" cy="83.01" r="8.11" style="fill:#ffb300"/><circle cx="481.48" cy="83.01" r="7.88" style="fill:#ffb500"/><circle cx="481.48" cy="83.01" r="7.66" style="fill:#ffb600"/><circle cx="481.48" cy="83.01" r="7.43" style="fill:#ffb800"/><circle cx="481.48" cy="83.01" r="7.21" style="fill:#ffb900"/><circle cx="481.48" cy="83.01" r="6.98" style="fill:#fb0"/><circle cx="481.48" cy="83.01" r="6.76" style="fill:#ffbc00"/><circle cx="481.48" cy="83.01" r="6.53" style="fill:#ffbe00"/><circle cx="481.48" cy="83.01" r="6.31" style="fill:#ffbf00"/><circle cx="481.48" cy="83.01" r="6.08" style="fill:#ffc000"/><circle cx="481.48" cy="83.01" r="5.86" style="fill:#ffc200"/><circle cx="481.48" cy="83.01" r="5.63" style="fill:#ffc300"/><circle cx="481.48" cy="83.01" r="5.41" style="fill:#ffc400"/><circle cx="481.48" cy="83.01" r="5.18" style="fill:#ffc600"/><circle cx="481.48" cy="83.01" r="4.96" style="fill:#ffc700"/><circle cx="481.48" cy="83.01" r="4.73" style="fill:#ffc800"/><circle cx="481.48" cy="83.01" r="4.5" style="fill:#ffc900"/><circle cx="481.48" cy="83.01" r="4.28" style="fill:#ffca00"/><circle cx="481.48" cy="83.01" r="4.05" style="fill:#ffcb00"/><circle cx="481.48" cy="83.01" r="3.83" style="fill:#fc0"/><circle cx="481.48" cy="83.01" r="3.6" style="fill:#ffcd00"/><circle cx="481.48" cy="83.01" r="3.38" style="fill:#ffce00"/><circle cx="481.48" cy="83.01" r="3.15" style="fill:#ffcf00"/><circle cx="481.48" cy="83.01" r="2.93" style="fill:#ffd000"/><circle cx="481.48" cy="83.01" r="2.7" style="fill:#ffd100"/><circle cx="481.48" cy="83.01" r="2.48" style="fill:#ffd100"/><circle cx="481.48" cy="83.01" r="2.25" style="fill:#ffd200"/><circle cx="481.48" cy="83.01" r="2.03" style="fill:#ffd300"/><circle cx="481.48" cy="83.01" r="1.8" style="fill:#ffd300"/><circle cx="481.48" cy="83.01" r="1.58" style="fill:#ffd400"/><circle cx="481.48" cy="83.01" r="1.35" style="fill:#ffd400"/><circle cx="481.48" cy="83.01" r="1.13" style="fill:#ffd500"/><circle cx="481.48" cy="83.01" r="0.9" style="fill:#ffd500"/><circle cx="481.48" cy="83.01" r="0.68" style="fill:#ffd600"/><circle cx="481.48" cy="83.01" r="0.45" style="fill:#ffd600"/><circle cx="481.48" cy="83.01" r="0.23" style="fill:#ffd600"/></g><path d="M505.59,77.51l-36.2,11.36-.22-2.18c-.11-1.09-.25-2.15-.44-3.21s-.36-2.15-.58-3.2l-.51-2.15Z" style="fill:#ffc400"/><path d="M420.85,140.21a48.36,48.36,0,1,1,40-55.47A48.37,48.37,0,0,1,420.85,140.21Z" style="fill:url(#radial-gradient)"/></g></g></svg>